# xmcd
#
# Track frame offsets:
#	150
#	12191
#	24803
#	38167
#	51027
#	62558
#	74626
#	87827
#	100415
#	112897
#	126029
#	138397
#	151729
#	162993
#	174961
#	186411
#	198362
#	210073
#	221981
#	235001
#	247461
#	259814
#
# Disc length: 3616 seconds
#
# Revision: 1
# Processed by: cddbd v1.5.2PL0 Copyright (c) Steve Scherf et al.
# Submitted via: audiograbber 1.83.01
#
DISCID=2e0e1e16
DTITLE=Curtis Jones - Vol. 3 (15 June 1939-20 September 1940)
DYEAR=1994
DGENRE=Blues
TTITLE0=What Evil Have I Done (Lillie Mae Kirkman vcl.)
TTITLE1=It's a Hard Way to Travel (Lillie Mae Kirkman vcl.)
TTITLE2=I'm in the Mood for You
TTITLE3=Who You Lovin'
TTITLE4=I Like the Way You Do
TTITLE5=My Baby's Blues
TTITLE6=Private Talk Blues
TTITLE7=Blue and Lonesome
TTITLE8=Bosom Friend Blues
TTITLE9=Heavy Hip Mama
TTITLE10=Solid Jive
TTITLE11=Love in a Loving Way
TTITLE12=Gold Digger Blues
TTITLE13=Sugar Bowl Blues
TTITLE14=Treat Me Like I Treat You
TTITLE15=Heart Breaking Blues
TTITLE16=Moonlight Lover Blues
TTITLE17=Cradle Rockin' Blues
TTITLE18=Day and Night Blues
TTITLE19=Love Land Blues
TTITLE20=Down Town Blues
TTITLE21=Blue Memories
EXTD=
EXTT0=
EXTT1=
EXTT2=
EXTT3=
EXTT4=
EXTT5=
EXTT6=
EXTT7=
EXTT8=
EXTT9=
EXTT10=
EXTT11=
EXTT12=
EXTT13=
EXTT14=
EXTT15=
EXTT16=
EXTT17=
EXTT18=
EXTT19=
EXTT20=
EXTT21=
PLAYORDER=
